<?xml version="1.0" encoding="UTF-8"?>
<svg id="Capa_1" data-name="Capa 1" xmlns="http://www.w3.org/2000/svg" viewBox="0 0 1023.31 738.21">
  <defs>
    <style>
      .cls-1 {
        stroke-width: 0px;
      }
    </style>
  </defs>
  <path class="cls-1" d="M368.93,738.21h-54.95c-1.44-.32-2.86-.8-4.32-.92-8.6-.72-17.23-1.15-25.81-2.07-17.87-1.93-35.56-5.03-52.95-9.58-8.04-2.1-16.04-4.44-23.86-7.23-11.1-3.97-22.27-7.93-32.96-12.85-13.58-6.25-26.57-13.67-38.98-22.12-13.09-8.91-25.41-18.71-36.88-29.6-11.48-10.9-22.1-22.62-31.22-35.54-8.04-11.39-15.78-23.07-22.71-35.17-6.02-10.49-11.11-21.57-15.92-32.68-7.54-17.43-13.35-35.51-17.54-54.03-2.82-12.47-5.33-25.05-7.11-37.71-1.73-12.31-2.67-24.76-3.36-37.18-.52-9.46-.39-18.98-.03-28.45.32-8.28,1.05-16.58,2.17-24.79,1.3-9.54,1.73-9.64,11.37-9.64,223.73,0,447.47,0,671.2,0,13.46,0,26.89-.02,40.32-1.79,14.14-1.86,27.63-5.77,40.83-10.86,3.03-1.17,5.74-3.14,8.75-4.82-2.94-6.06-5.8-11.66-8.4-17.38-7.33-16.12-10.83-33.11-11.05-50.78-.14-11.64.29-23.21,1.78-34.82,2.05-15.98,6.42-31.25,12.23-46.15,6.15-15.79,16.01-29.46,25.49-43.33,2.12-3.1,3.47-3.25,6.56-1.01,5.38,3.9,10.83,7.74,16.05,11.85,10.32,8.12,20.46,16.47,28.79,26.74,5.54,6.83,11.44,13.44,16.35,20.71,11.11,16.46,18.56,34.5,21.75,54.22.89,5.51,1.41,5.45,6.88,4.88,11.06-1.16,22.15-2.63,33.23-2.73,12.1-.11,24.19,1.25,36.2,3.21,14.76,2.42,28.81,6.49,41.58,14.52,6.9,4.33,13.94,8.44,20.91,12.66v3c-1.81,3.36-3.69,6.68-5.42,10.07-5.19,10.21-9.83,20.73-15.6,30.59-7.61,13.02-17.74,24.08-29.85,33.15-17.48,13.1-37.14,21.53-58.6,25.08-13.07,2.16-26.4,2.72-39.62,3.94-1.48.14-3.08.18-4.46-.24-4.61-1.42-5.85.39-7.68,4.59-6.65,15.22-13.31,30.47-20.66,45.36-5.73,11.61-12.13,22.94-18.9,33.98-8.6,14.02-17.79,27.69-26.92,41.39-3.13,4.69-6.69,9.11-10.28,13.47-7.38,8.98-14.75,17.98-22.42,26.71-6.91,7.86-14.01,15.56-21.41,22.96-5.98,5.98-12.67,11.25-18.79,17.1-12.89,12.34-27.18,22.93-41.56,33.37-16.29,11.83-33.38,22.41-51.18,31.83-7.49,3.97-14.92,8.08-22.59,11.68-9.93,4.65-19.98,9.1-30.16,13.17-10.8,4.33-21.67,8.55-32.76,12.04-14.9,4.69-29.96,8.9-45.08,12.83-11.09,2.88-22.32,5.43-33.62,7.32-16.21,2.71-32.53,4.75-48.83,6.94-6.75.91-13.53,1.64-20.31,2.11-8.12.56-16.26.73-24.39,1.15-1.12.06-2.21.58-3.32.88Z"/>
  <path class="cls-1" d="M507.3,118.96c15.64,0,31.28-.02,46.93.01,6.04.01,6.5.48,6.5,6.6.02,29.61.02,59.23,0,88.84,0,5.8-.56,6.39-6.21,6.39-31.45.03-62.9.03-94.35,0-6.02,0-7.26-1.19-7.27-7.39-.05-29.45-.04-58.89-.01-88.34,0-5.6.56-6.09,6.5-6.1,15.97-.03,31.95-.01,47.92-.01Z"/>
  <path class="cls-1" d="M257.56,118.96c15.64,0,31.28-.02,46.92.01,6.03.01,6.49.48,6.49,6.61.02,29.61.02,59.22,0,88.82,0,5.82-.55,6.4-6.2,6.4-31.45.03-62.89.03-94.34,0-5.76,0-6.37-.6-6.38-6.23-.03-29.94-.03-59.88,0-89.82,0-5.5.31-5.77,6.09-5.78,15.81-.03,31.61,0,47.42,0Z"/>
  <path class="cls-1" d="M381.91,118.96c15.81,0,31.61-.02,47.42.01,6.07.01,6.52.47,6.53,6.58.02,29.61.02,59.22,0,88.83,0,5.96-.51,6.43-6.67,6.43-31.11.02-62.23,0-93.34,0-.67,0-1.33.02-2-.02-3.95-.23-4.65-.9-4.9-4.69-.05-.83-.02-1.66-.02-2.49,0-29.28,0-58.55,0-87.83,0-6.8.03-6.8,7.07-6.82,1.66,0,3.33,0,4.99,0,13.64,0,27.29,0,40.93,0Z"/>
  <path class="cls-1" d="M507.3,238.8c15.64,0,31.28-.02,46.92.01,6.04.01,6.5.48,6.5,6.6.02,29.44.02,58.89,0,88.33,0,5.71-.28,5.99-5.89,5.99-31.78.02-63.56.02-95.34,0-6.09,0-6.62-.51-6.62-6.5-.02-29.28-.02-58.56,0-87.83,0-6.13.47-6.59,6.51-6.6,15.97-.03,31.95-.01,47.92-.01Z"/>
  <path class="cls-1" d="M631.67,339.75c-15.65,0-31.3.01-46.95,0-6.53,0-6.96-.4-6.97-6.66-.02-29.3-.02-58.59,0-87.89,0-5.78.58-6.38,6.23-6.38,31.8-.03,63.6-.03,95.4,0,5.64,0,6.21.6,6.21,6.4.03,29.3.02,58.59,0,87.89,0,6.25-.44,6.64-6.99,6.65-15.65.02-31.3,0-46.95,0Z"/>
  <path class="cls-1" d="M132.57,339.75c-15.81,0-31.62.02-47.43-.01-5.65-.01-5.92-.28-5.92-5.95-.02-29.45-.02-58.9,0-88.35,0-6.14.47-6.62,6.48-6.63,31.45-.02,62.91-.02,94.36,0,5.74,0,6.05.29,6.05,5.82.02,29.78.02,59.56,0,89.35,0,5.47-.34,5.76-6.11,5.77-15.81.02-31.62,0-47.43,0Z"/>
  <path class="cls-1" d="M257.54,238.8c15.65,0,31.29-.02,46.94.01,6.03.01,6.49.47,6.49,6.62.02,29.45.02,58.91,0,88.36,0,5.68-.27,5.95-5.92,5.96-31.62.02-63.25.02-94.87,0-5.88,0-6.12-.26-6.13-6.26-.02-29.45-.02-58.91,0-88.36,0-6.18.16-6.32,6.56-6.32,15.65-.02,31.29,0,46.94,0Z"/>
  <path class="cls-1" d="M382.42,238.8c15.65,0,31.29-.02,46.94.01,6.03.01,6.49.47,6.49,6.62.02,29.45.02,58.91,0,88.36,0,5.68-.28,5.95-5.93,5.95-31.63.02-63.25.02-94.88,0-5.88,0-6.12-.26-6.13-6.25-.02-29.45-.02-58.91,0-88.36,0-6.18.15-6.31,6.56-6.32,15.65-.02,31.29,0,46.94,0Z"/>
  <path class="cls-1" d="M507.03,0c15.97,0,31.94-.02,47.92,0,5.38.01,5.77.36,5.78,5.6.03,29.61.03,59.21,0,88.82,0,5.24-.4,5.61-5.76,5.62-31.94.02-63.89.02-95.83,0-5.25,0-6.22-.86-6.23-6.07-.06-29.61-.05-59.21-.02-88.82,0-4.62.54-5.12,5.23-5.14,16.3-.05,32.61-.02,48.91-.02Z"/>
</svg>