<?xml version="1.0" encoding="UTF-8"?>
<svg id="Capa_1" data-name="Capa 1" xmlns="http://www.w3.org/2000/svg" viewBox="0 0 510.96 190.53">
  <defs>
    <style>
      .cls-1 {
        stroke-width: 0px;
      }
    </style>
  </defs>
  <path class="cls-1" d="M0,79.04c4.33-7.58,11.24-7.97,19.09-7.88,32.55.35,65.1.15,97.65.15,1.91,0,3.82,0,5.81,0-.88,8.5-1.3,8.9-8.53,8.92-36.7.09-73.4.18-110.1.25-1.3,0-2.6-.28-3.91-.43,0-.33,0-.67,0-1Z"/>
  <path class="cls-1" d="M270.5,116.72c-11.83,0-22.93,0-34.02,0-4.66,0-9.33.17-13.97-.14-4.4-.3-6.21-2.84-4.49-6.78,4.12-9.43,8.31-18.87,13.27-27.86,1.2-2.17,5.46-3.69,8.34-3.72,23.95-.29,47.9-.17,71.86-.17,1.82,0,3.64,0,5.58,0,5.93-17.54,15.7-32.42,28.63-45.25,19.22-19.07,43.14-27.42,69.47-30.08C442.09,0,465.88,7.17,485.92,25.63c20.96,19.31,26.77,43.94,24.61,71.27-3.39,42.76-40.57,81.35-85.9,90.97-30.14,6.4-57.81,1.58-82.22-17.96-11.28-9.03-19.4-20.44-24.32-34.06-.45-1.25-.91-2.49-1.41-3.72-.12-.29-.4-.52-.3-.39-5.73,7.72-10.9,16.08-17.42,23.22-27.27,29.89-61.33,41.44-100.62,32.27-49.66-11.59-75.14-63.41-57.17-113.12C158.25,26.87,205.54-4.2,255.51.46c30.89,2.88,53.02,19.54,66.16,47.85,1.25,2.69.63,4.06-2.07,4.77-14.46,3.8-28.89,7.66-43.4,11.26-1.37.34-3.71-.56-4.68-1.68-12.12-13.88-27.29-18.57-44.52-12.93-19.39,6.34-33.07,19.44-37.05,40.04-1.56,8.06-1.59,17.17.51,25.05,6.65,24.91,35.72,35.49,59.52,22.54,8.08-4.39,14.65-10.87,20.53-20.65ZM407.27,143.23c25.32.24,48.96-20.82,53.08-47.27,4.09-26.28-15.59-48.73-42.14-48.06-24.3.62-44.6,16.92-51.44,41.31-7.89,28.12,11.32,53.74,40.51,54.02Z"/>
  <path class="cls-1" d="M135.61,48.35c-2.67,7.23-6.33,9.96-13.48,9.8-26.43-.57-52.89-.33-79.33-.42-1.46,0-2.91-.14-4.44-.22,2.26-6.91,5.15-9.16,11.55-9.16,26.61,0,53.22,0,79.84,0h5.87Z"/>
  <path class="cls-1" d="M60.33,103.8c3.35-9.42,3.67-9.66,11.55-9.66,13.95,0,27.9.03,41.85-.02,2.52,0,4.41.49,3.87,3.57-.44,2.53.65,6.12-3.88,6.12-17.57,0-35.14,0-53.39,0Z"/>
</svg>