<?xml version="1.0" encoding="UTF-8"?>
<svg id="Capa_1" data-name="Capa 1" xmlns="http://www.w3.org/2000/svg" viewBox="0 0 365.9 680.13">
  <defs>
    <style>
      .cls-1 {
        stroke-width: 0px;
      }
    </style>
  </defs>
  <path class="cls-1" d="M146.41,640.7c-9.51,2.09-17.02,3.6-21.78-6.25-11.06,6.83-22.5,11.09-35.62,10.27-12.03-.75-20.88-6.09-25.85-16.63-5.4-11.44-4.18-22.86,3.66-33.13,6.93-9.08,16.57-13.78,27.51-15.79,8.39-1.54,16.89-2.46,25.36-3.67,5.32-15.03.44-24.15-14.86-25.21-7.9-.55-16.01,1.65-24,2.78-3.05.43-6.04,1.33-10.41,2.32-1.58-4.27-3.03-8.18-4.79-12.91,21.02-11,41.76-13.19,63.33-6.11,11.33,3.72,16.69,13.46,17.1,23.95,1.03,26.45.34,52.97.34,80.38ZM121.47,594.15c-10.8-2.43-20-1.22-28.7,2.8-7.3,3.37-10.35,12.85-7.34,20.83,2.38,6.31,10.32,10.32,17.64,8.9,14.96-2.9,19.55-8.53,19.2-23.75-.06-2.63-.47-5.24-.8-8.78Z"/>
  <path class="cls-1" d="M321.71,575.34c1.08-18.96-7.72-27.5-25.16-25.14-8.43,1.14-16.73,3.22-26.34,5.12-1.61-4.32-3.07-8.24-5.2-13.97,7.66-2.42,13.81-5.31,20.23-6.17,10.65-1.43,21.55-2.64,32.22-1.96,15.03.97,26.93,11.87,27.44,25.32.87,23.01.42,46.07.45,69.12,0,4-.36,8.01-.63,13.58-5.61.32-10.75.61-15.66.88-2.05-2.78-3.59-4.86-5.43-7.36-2.05,1.01-4.16,1.8-6.01,2.99-9.12,5.87-19.09,7.76-29.78,6.82-12.19-1.06-22.54-5.64-25.92-18.12-3.38-12.48-3.54-25.27,7.13-35.26,7.09-6.64,15.52-10.81,25.2-12.18,8.87-1.25,17.75-2.38,27.45-3.68ZM322.11,594.02c-10.97-1.89-20.35-1.66-29.23,2.38-7.71,3.51-10.81,12.14-7.98,20.64,2.68,8.07,9.36,12.14,18.1,9.56,6.7-1.98,12.88-5.68,19.11-8.53v-24.04Z"/>
  <path class="cls-1" d="M182.45,258.74s-37.81-35.25-50.92-54.99c-3.47-5.22-6.22-10.98-8.75-16.74-5.9-13.46-5.02-26.87,3.75-38.53,7.27-9.66,15.51-18.87,24.57-26.85,15.23-13.4,31.94-25.12,47.14-38.55,16.95-14.99,29.57-33.1,31.53-56.53.62-7.43-1.33-16.17-2.52-26.54,4.44,4.41,6.18,6.65,7.23,8.15,9.51,13.46,7.58,43.84-4.12,64.35-9.45,16.58-22.32,30.53-37.02,42.84-12.41,10.4-25.4,19.98-35.54,33.13-13.98,18.13-15.91,36.78-6.18,56.86,3.52,7.27,12.89,23.98,16.98,31,5.73,9.84,13.84,22.42,13.84,22.42Z"/>
  <path class="cls-1" d="M210.03,611.97c6.25-25.68,12.5-51.36,18.79-77.21,7.73-2.01,15.05-2.87,23.29,1.53-6.69,36.9-16.38,72.61-33.09,105.33h-28.97c-10.84-35.36-21.48-70.04-32.21-105.02,8.66-5.01,16.37-3.75,25.21-1.62,7.93,25.58,15.89,51.25,23.85,76.93l3.13.06Z"/>
  <path class="cls-1" d="M42.03,411.52c-2.95,1.59-2.54,5.95.66,6.96,3.98,1.25,8.22,2.29,10.92,2.83,15.44,3.09,30.93,6.49,46.57,7.84,21.99,1.89,44.13,2.68,66.21,2.77,19.37.08,38.83-.52,58.08-2.48,26.84-2.73,53.59-6.58,80.24-10.85,9.76-1.56,22.6-4.51,21.55-18.7,1.46,1.58,3.41,3.54,5.14,5.29,2.01,2.03,2.77,6.29,1.28,8.73-3.33,5.45-8.78,8.64-16.12,11.65-24.15,9.89-36.4,11.56-57.38,14.37-21.39,2.87-42.78,3.83-64.32,5.44-14.82,1.11-31.8,1.13-46.6.85-40.71-.76-80.15-3.82-117.84-9.84-10.57-2.01-15.91-3.76-20.82-8.27-3.33-3.06-3.31-8.24.06-11.27,14.52-13.04,47.12-24.24,72.3-20.75-3.78,2.02-12.78,4.52-19.47,7.21-4.7,1.89-13.79,4.62-20.47,8.22Z"/>
  <path class="cls-1" d="M8.72,680.13c-3.03-3.89-5.74-7.36-8.72-11.19,1.34-1.84,2.04-3.72,3.4-4.54,15.1-9.18,18.15-23.9,18.21-39.8.15-37.52.07-75.04.07-112.56,0-4.86,0-9.72,0-14.56,8.89-3.16,16.15-3.32,24.39.78.19,4.21.57,8.63.58,13.06.04,37.97.14,75.95-.12,113.92-.05,7.15-.98,14.43-2.58,21.41-3.94,17.21-15.6,28.3-35.24,33.47Z"/>
  <path class="cls-1" d="M206.07,260.61c7.41-13.53,6.06-24.24-3.45-36.52-5.23-6.75-10.64-13.56-14.53-21.09-11.27-21.79-7.73-43.18,9.01-61.02,18.8-20.02,42.88-31.12,67.98-40.51,5.42-2.03,10.86-2.75,17.69-3.8-2.12,1.6-4.18,3.27-6.36,4.78-14.11,9.73-28.25,19.42-42.36,29.15-1.85,1.28-3.64,2.68-5.32,4.17-22.71,20.09-24.51,35.43-7.22,59.97,3.63,5.15,7.03,10.46,10.43,15.77,5.64,8.81,5.38,18.02,1.08,27.14-6.74,14.31-17.45,26.41-32.51,32.32,0,0,3.86-7.25,5.56-10.35Z"/>
  <path class="cls-1" d="M280.14,274.48c-17.35,16.77-40.41,18.45-58.85,20.49-30.84,3.4-62.64,4.36-93.64,4.14-22.77-.16-45.72.7-67.9-6.32-4.86-1.54-13.96-3.35-15.61-10.2,1.14-7.11,9.47-9.16,14.54-11.48,23.51-10.74,53.04-14.03,69.51-13.33-12.66,6.15-32.08,10.48-45.3,17.67-2.47,1.35-1.49,5.25,1.27,5.85,3.97.86,8.04,1.36,10.46,1.68,29.6,3.93,57.85,4.43,87.59,1.13,13.41-1.49,26.95-1.85,40.38-3.24,14.76-1.53,26.76-2.42,41.49-4.24,2.75-.34,11.14-1.39,16.05-2.15Z"/>
  <path class="cls-1" d="M117.47,360.87c-3.7,6.77-4.33,11.4,1.73,12.93,27.73,7.03,65.37,4.66,97.48-.93,8.18-1.43,10.62-1.78,19.29,1.64,4.97,1.96,11.74,6.02,18.73,8.51-12.58,16.47-86.33,22.12-130.99,14.94-6.85-1.72-14.9-5.15-20.68-9.13-9.66-6.65-9.73-16.35.32-22.06,2.68-1.52,9.81-4.33,14.1-5.9Z"/>
  <path class="cls-1" d="M105.86,310.8c-9.24,14.29.51,16.5,11.98,17.36,13.88,1.05,27.05,2.98,40.96,2.62,28.37-.72,57.42-3.26,85.37-8.3,5.75,3.86,12.13,7.79,19.47,12.02-10.75,5.92-24.03,7.76-34.95,9.72-27.49,4.91-55.33,6.26-83.24,4.12-15.13-1.16-29.98-2.87-44.84-6.14-7.31-1.61-18.36-5.9-18.36-15.47,0-5.83,9.91-11.66,15.19-13.63,3.41-1.27,6.65-1.82,8.42-2.3Z"/>
  <path class="cls-1" d="M69.85,452.93c6.76,2.64,17.32,3.28,23.28,4,30.02,3.65,60.31,3.84,90.47,2.15,38.63-2.17,77.33-1.99,115.19-11.03,18.31-4.37,37.36-8.56,54.18-23.43-1.74,8.68-5.5,14.26-10.76,17.93-12.51,8.75-27.43,14.61-42.06,17.07-22.15,3.73-44.24,7.69-66.64,9.34-24.7,1.82-53.79,2.72-78.51,1.75-24.21-.95-57.04-4.17-73.92-10-3.93-1.36-11.43-7.03-11.25-7.79Z"/>
  <path class="cls-1" d="M280.65,342.38c4.29-2.82,8.35-6.08,12.9-8.39,11.96-6.09,21.11-15.44,29.92-25.13,10.07-11.08,12.38-24.24,6.75-34.83-6-11.28-18.04-16.12-33.82-13.66-1.21.19-2.48.02-4.34.02,4.05-8.8,12.53-7.7,18.83-8.21,14.42-1.17,27.98,2.45,36.81,15.24,9.11,13.2,7.54,29.39-3.46,42.55-9.78,11.71-22.21,19.84-36.16,25.57-8.58,3.53-17.54,6.14-26.33,9.17-.37-.78-.74-1.56-1.12-2.34Z"/>
  <path class="cls-1" d="M348.32,541.06v-6.76c5.83.96,11.2,1.84,16.85,2.76,1.98,4.67-.25,6.85-4.7,6.55-3.87-.26-7.66-1.56-12.15-2.55Z"/>
</svg>