<?xml version="1.0" encoding="UTF-8"?>
<svg id="Capa_1" data-name="Capa 1" xmlns="http://www.w3.org/2000/svg" viewBox="0 0 383.69 383.3">
  <defs>
    <style>
      .cls-1 {
        stroke-width: 0px;
      }
    </style>
  </defs>
  <path class="cls-1" d="M383.69,383.3H1.12C-.15,379.67-.47,6.15.82,0h382.86v383.3ZM341.73,202.38c-6.42-12.26-16.93-21.56-28.51-25.33-12.14-3.95-24.58-4.38-36.89-1.45-22.56,5.37-38.13,23.26-37.14,47.63.67,16.44,7.12,29.79,20.78,39.43,10.84,7.66,23.25,12.09,35.16,17.58,5.4,2.49,10.63,5.47,15.62,8.71,3.89,2.53,6.2,6.37,6.44,11.26.48,9.61-3.2,15.63-12.46,18.5-15.22,4.73-28.92,2.07-40.21-9.75-2.73-2.86-5.13-6.03-7.98-9.43-9.42,5.4-18.7,10.72-28.35,16.25,6.46,11.01,14,20.14,24.87,26,18.67,10.08,38.5,11.8,59.01,7.51,8.74-1.83,16.77-5.42,23.71-11.12,9.75-8,15.29-18.35,15.89-30.97.38-7.92.91-15.94-1.92-23.67-4.35-11.88-12.89-20.23-23.57-26.1-11.19-6.14-23.04-11.08-34.51-16.71-4.01-1.97-8-4.14-11.56-6.8-5.26-3.93-6.85-9.66-5.87-15.99,1.01-6.59,5.07-10.76,11.39-12.51,9.77-2.7,18.03.08,24.76,7.52,1.75,1.93,3.22,4.12,4.97,6.38,8.89-5.71,17.52-11.26,26.38-16.95ZM101.9,321.11c5.41,11.22,12.72,19.56,23.09,25,13.64,7.16,28.15,8.27,43.17,6.08,20.01-2.92,35.38-17.07,38.53-37.07,1.56-9.95,1.48-20.17,1.87-30.29.18-4.8-.4-9.63-.41-14.45-.04-28.95-.01-57.9-.04-86.84,0-2.09-.25-4.18-.38-6.13-6.62-1.21-30.67-.89-34.35.47,0,1.87,0,3.86,0,5.85,0,36.77.03,73.53-.06,110.3-.01,4.63-.3,9.32-1.05,13.89-1.09,6.65-5.13,11-11.7,12.86-9.41,2.67-18.42-.28-24.4-8.15-2.09-2.75-3.94-5.69-6.13-8.89-9.39,5.8-18.53,11.44-28.15,17.38Z"/>
</svg>