<?xml version="1.0" encoding="UTF-8"?>
<svg xmlns="http://www.w3.org/2000/svg" version="1.1" viewBox="0 0 230.1 223.4">
  <!-- Generator: Adobe Illustrator 28.6.0, SVG Export Plug-In . SVG Version: 1.2.0 Build 709)  -->
  <g>
    <g id="Capa_1">
      <g>
        <path class="cls-1" d="M136.9,128.2c-.3,0-.6,0-1,0-.6,0-1.1.2-1.6.4-2,1-2.9,3.4-2,5.5h0s9.7,23.4,9.7,23.4c9.3-5.9,16.3-14.7,20-25.1l-24.9-4.2h0ZM98.2,131.5c-.4-1.9-2.1-3.3-4-3.3-.3,0-.6,0-.8,0h0c0,0-24.7,4.1-24.7,4.1,3.7,10.3,10.7,19,19.9,24.9l9.6-23.1h0c.4-.9.4-1.8.2-2.7h0ZM118.8,140.6c-1.1-2.1-3.7-2.8-5.7-1.7-.7.4-1.3,1-1.7,1.7h0l-12.1,22c8.7,3,18,3.4,27,1.4,1.7-.4,3.3-.8,4.9-1.4l-12.2-22h0ZM157.3,89.5l-18.7,16.7h0c-1.8,1.6-1.9,4.3-.4,6,.5.6,1.3,1.1,2.1,1.3h0c0,.1,24.2,7.1,24.2,7.1,1-10.9-1.5-21.8-7.2-31.1h0ZM122.6,91.4c.1,2.3,2.1,4.1,4.4,4,.8,0,1.6-.3,2.3-.8h0s20.5-14.5,20.5-14.5c-7.8-7.6-17.9-12.5-28.7-13.8l1.4,25.1h0ZM100.9,94.7c1.9,1.4,4.5,1,5.9-.9.5-.7.8-1.5.8-2.3h.1s1.4-25.2,1.4-25.2c-1.7.2-3.4.5-5.1.9-9,2-17.2,6.5-23.7,12.9l20.6,14.6h0ZM89.9,113.7c2.2-.6,3.6-2.9,3-5.2-.2-.8-.7-1.5-1.3-2.1h0c0,0-18.8-16.9-18.8-16.9-5.7,9.3-8.2,20.3-7,31.2l24.1-7h0ZM108.2,121.1l6.9,3.3,6.9-3.3,1.7-7.5-4.8-6h-7.7l-4.8,6,1.7,7.5Z"/>
        <path class="cls-1" d="M229.7,135.8l-19.8-85.8c-1.1-4.5-4.1-8.3-8.3-10.3L121.7,1.5c-4.2-2-9.1-2-13.3,0L28.5,39.7c-4.2,2-7.2,5.8-8.3,10.3L.5,135.8c-.5,2.2-.5,4.4,0,6.6.1.7.3,1.3.6,1.9.4,1.1.9,2.1,1.5,3.1.3.4.6.8.9,1.2l55.3,68.8c.2.3.5.6.8.9.9.9,1.8,1.7,2.9,2.4,1.4.9,2.8,1.5,4.4,1.9,1.3.3,2.6.5,3.9.5h88.7c.5,0,1.1,0,1.6-.1.8,0,1.5-.2,2.3-.4.5-.1,1.1-.3,1.6-.5.4-.2.8-.3,1.2-.5.6-.3,1.1-.6,1.7-.9,1.4-.9,2.6-2,3.7-3.2l1.7-2.1,53.6-66.7c1-1.3,1.8-2.7,2.4-4.3.2-.6.4-1.3.6-2,.5-2.2.5-4.4,0-6.6h0ZM146.8,169.1c.2.7.5,1.3.8,1.9-.5.9-.6,1.9-.4,2.8,1.2,2.7,2.6,5.2,4.2,7.6.9,1.2,1.8,2.5,2.6,3.8.2.4.4.9.6,1.3,1.4,2.3.6,5.2-1.7,6.6s-5.2.6-6.6-1.7c-.2-.3-.3-.6-.4-.8-.2-.4-.4-.9-.6-1.2-.5-1.4-1-2.9-1.4-4.4-.8-2.8-1.9-5.5-3.3-8-.6-.8-1.5-1.3-2.4-1.5-.2-.3-.7-1.3-1-1.8-14.2,5.4-30,5.4-44.2-.1l-1.1,2c-.8.1-1.5.5-2.1,1-1.6,2.7-2.9,5.6-3.7,8.6-.4,1.5-.8,3-1.4,4.4-.2.4-.4.8-.6,1.2h0s0,0,0,0c-.9,2.5-3.6,3.8-6.1,2.9-2.5-.9-3.8-3.6-2.9-6.1.1-.3.2-.6.4-.9.2-.4.4-.9.6-1.3.8-1.3,1.6-2.6,2.6-3.8,1.7-2.5,3.1-5.1,4.3-7.8.1-.9,0-1.9-.4-2.7l.9-2.1c-13.1-7.7-22.9-20-27.6-34.5l-2.1.4c-.8-.6-1.8-.9-2.8-1-2.9.5-5.6,1.4-8.3,2.5-1.4.6-2.8,1.2-4.3,1.6-.3,0-.8.2-1.2.3,0,0,0,0,0,0,0,0,0,0,0,0-2.5.8-5.2-.5-6.1-3.1-.8-2.5.5-5.2,3.1-6.1.3,0,.6-.2.9-.2h0s0,0,0,0c.4,0,.9-.2,1.3-.3,1.5-.2,3.1-.3,4.6-.4,2.9-.2,5.8-.7,8.6-1.4.8-.5,1.5-1.2,2.1-2.1l2-.6c-2.2-15.1,1.3-30.5,9.8-43.2l-1.5-1.4c0-1-.4-1.9-1-2.8-2.2-1.9-4.6-3.6-7.1-5-1.4-.7-2.7-1.5-4-2.3-.3-.2-.7-.5-1-.8h0c-2.3-1.7-2.8-4.8-1.2-7.1.9-1.1,2.3-1.8,3.8-1.7,1.2,0,2.4.5,3.3,1.3.3.3.8.6,1.1.8,1.1,1.1,2.2,2.2,3.2,3.3,2,2.1,4.1,4.1,6.5,5.8.9.5,1.9.6,2.8.3.6.4,1.1.8,1.7,1.2,8.4-8.9,19.3-15.2,31.3-17.9,2.8-.6,5.7-1.1,8.7-1.3v-2c.9-.7,1.4-1.5,1.7-2.5.1-2.9,0-5.8-.5-8.7-.3-1.5-.5-3-.7-4.6,0-.3,0-.8,0-1.2,0,0,0,0,0-.1-.3-2.6,1.7-5,4.3-5.3s5,1.7,5.3,4.3c0,.3,0,.6,0,1,0,.4,0,1,0,1.4-.1,1.5-.4,3-.7,4.6-.5,2.9-.6,5.8-.5,8.7.2,1,.8,1.8,1.6,2.4,0,.3,0,1.5.1,2.1,15.1,1.4,29.2,8.2,39.7,19.2l1.8-1.3c1,.2,2,0,2.9-.3,2.3-1.7,4.5-3.7,6.5-5.8,1-1.2,2-2.3,3.2-3.3.3-.3.7-.6,1.1-.8,1.9-1.9,4.9-1.8,6.8,0,1.9,1.9,1.8,4.9,0,6.8-.2.2-.5.4-.8.6-.3.3-.7.6-1.1.9-1.3.8-2.6,1.6-4,2.3-2.5,1.4-4.9,3.1-7.1,5-.6.8-1,1.7-.9,2.7-.3.2-1.2,1.1-1.7,1.5,8.5,12.7,12,28,10,43.1l1.9.6c.5.9,1.2,1.6,2.1,2.1,2.8.7,5.7,1.2,8.6,1.4,1.5,0,3.1.2,4.6.4.4,0,1,.2,1.4.3,2.6.3,4.5,2.8,4.1,5.4-.3,2.6-2.8,4.5-5.4,4.1-.3,0-.6-.1-.9-.2h0s0,0,0,0c-.4,0-.9-.2-1.2-.3-1.5-.5-2.9-1-4.3-1.7-2.7-1.1-5.5-1.9-8.3-2.5-1,0-1.9.3-2.7,1-.7-.1-1.4-.2-2-.4-4.6,14.6-14.4,26.9-27.6,34.7h0Z"/>
      </g>
    </g>
  </g>
</svg>
