<?xml version="1.0" encoding="UTF-8"?>
<svg id="Capa_1" data-name="Capa 1" xmlns="http://www.w3.org/2000/svg" viewBox="0 0 510.73 188.74">
  <defs>
    <style>
      .cls-1 {
        stroke-width: 0px;
      }
    </style>
  </defs>
  <path class="cls-1" d="M0,170.19c3.6-6.3,7.94-11.46,16.26-10.29,6.76.95,12.14,6.64,12.63,13.37.46,6.3-3.79,12.69-9.75,14.68-6.7,2.23-13.52-.34-17.16-6.46-.66-1.1-1.32-2.21-1.98-3.31,0-2.66,0-5.32,0-7.98Z"/>
  <path class="cls-1" d="M196.15,157.02V.16h21.01v185.99c-8.29,0-16.39.12-24.48-.12-1.27-.04-2.9-1.43-3.68-2.63-31.67-48.97-63.26-97.99-94.82-147.03-1.86-2.89-3.28-6.06-5.33-9.87v159.29h-20.94V.03c8.92,0,17.82-.15,26.71.17,1.25.05,2.65,2.25,3.58,3.71,32.2,50.4,64.36,100.83,96.52,151.26.33.52.75.98,1.42,1.85Z"/>
  <path class="cls-1" d="M266.04.12h93.84v19.4h-71.43v61.83h66.6v19.83h-66.63v64.58h76.12v20.08h-98.5V.12Z"/>
  <path class="cls-1" d="M457,186.05h-21.79V19.63h-53.49V.33h129.01v19.29h-53.74v166.43Z"/>
</svg>