<?xml version="1.0" encoding="UTF-8"?>
<svg id="Capa_1" data-name="Capa 1" xmlns="http://www.w3.org/2000/svg" viewBox="0 0 452.66 510.23">
  <defs>
    <style>
      .cls-1 {
        stroke-width: 0px;
      }
    </style>
  </defs>
  <path class="cls-1" d="M228.5,0c27.3,6.91,49.02,24.65,72.94,38.02,42.64,23.84,84.52,49.02,127.01,73.14,16.45,9.33,24.26,22.62,24.22,41.37-.15,69.35-.05,138.71-.07,208.06,0,16.59-6.56,29.56-21.21,38.02-35.97,20.78-71.94,41.57-107.89,62.39-24.74,14.32-49.35,28.85-74.2,42.97-14.73,8.37-29.73,8.45-44.5-.33-20.14-11.98-40.28-23.95-60.39-35.98-1.63-.98-3.04-2.33-5.3-4.09,2.3-1.23,3.77-2.14,5.34-2.84,7.57-3.36,15.34-6.32,22.69-10.12,4.25-2.2,7.47-2.03,11.45.44,13.56,8.4,27.42,16.32,40.96,24.75,4.52,2.81,8.16,2.9,12.83.18,51.82-30.22,103.75-60.25,155.65-90.33,8.62-5,17.15-10.18,25.92-14.92,4.29-2.31,5.57-5.47,5.56-10.1-.1-59.87-.06-119.75-.06-179.62,0-10.31-.21-20.63.09-30.93.14-4.97-1.69-7.99-5.95-10.42-24.82-14.17-49.54-28.52-74.3-42.81-33.82-19.52-67.82-38.74-101.35-58.74-8.47-5.05-14.72-5.37-23.42-.2-39.71,23.6-79.91,46.38-119.92,69.47-18.71,10.79-37.37,21.68-56.15,32.36-4.26,2.43-5.93,5.58-5.92,10.49.11,70.02.12,140.04,0,210.06,0,5.13,1.72,8.29,6.22,10.78,17.58,9.74,34.85,20.04,52.58,29.49,4.63,2.46,10.48,3.45,15.82,3.59,14.97.41,25.83-10.64,25.85-25.63.05-45.57.02-91.14.02-136.71,0-24.12,0-48.23,0-72.35,0-7.12,1.28-8.37,8.45-8.4,5.65-.03,11.31-.03,16.96,0,7.16.04,8.11.96,8.12,8.03.02,44.24.04,88.48,0,132.72-.03,28.77.22,57.55-.37,86.31-.44,21.64-13.16,39.56-32.49,45.81-15.36,4.97-31.25,5.1-46.51-.61-9.28-3.48-18.19-8.12-26.92-12.88-13.71-7.47-27.19-15.38-40.66-23.29-10.56-6.2-16.39-15.7-18.39-27.68-.18-1.1-.79-2.13-1.2-3.19,0-73.52,0-147.05,0-220.57.31-.58.81-1.13.89-1.74,1.91-15.8,11.24-25.68,24.67-33.32,42.57-24.23,84.58-49.48,127.34-73.36C176.38,24.18,197.67,6.7,224.51,0h3.99Z"/>
  <path class="cls-1" d="M278.5,154.95c16.02-.21,31.85,1,47.2,6.12,25.21,8.41,39.56,25.75,43.2,52.02.23,1.65.53,3.29.68,4.94.36,4.11-1.46,6.32-5.64,6.39-7.31.14-14.63-.03-21.95.07-3.8.05-5.08-2.13-5.93-5.39-2.4-9.15-5.79-18.03-14.2-23.26-5.13-3.19-10.96-5.92-16.83-7.09-17.24-3.44-34.71-3.57-52.01-.28-9.09,1.73-17.92,4.9-22.4,14.04-4.4,8.97-5.14,22.84,9.94,26.88,13.58,3.64,27.52,6.07,41.41,8.38,22.23,3.69,44.89,5.24,66.02,14.08,20.54,8.59,30.14,24.33,29.3,46.72-1.12,29.76-18.98,46.89-43.2,55.42-21.92,7.72-44.65,7.93-67.5,6.57-15.89-.95-31.34-3.85-45.76-10.85-22.67-11-33.94-29.44-34.79-54.42-.2-5.87,1.45-7.44,7.27-7.5,6.48-.07,12.98.15,19.45-.07,4.79-.17,6.9,1.93,7.49,6.57,2.25,17.61,12.4,28.09,29.51,32.06,2.91.67,5.85,1.32,8.81,1.66,17.56,1.98,35.22,2.7,52.62-.58,7.3-1.38,14.7-4.37,21.01-8.31,8.3-5.17,11.97-16.97,8.65-26.14-1.39-3.83-4.85-7.73-8.42-9.79-11.58-6.69-24.77-8.17-37.77-10.05-20.67-2.98-41.73-3.64-61.87-9.86-12.89-3.99-24.94-9.39-32.8-21.19-11.81-17.72-11.19-53.27,13.91-71.03,15.49-10.96,33.13-14.92,51.63-16.06,4.31-.27,8.64-.04,12.96-.04Z"/>
</svg>