<?xml version="1.0" encoding="UTF-8"?>
<svg id="Capa_1" data-name="Capa 1" xmlns="http://www.w3.org/2000/svg" viewBox="0 0 511 268.84">
  <defs>
    <style>
      .cls-1 {
        stroke-width: 0px;
      }
    </style>
  </defs>
  <path class="cls-1" d="M511,142.35c-2.73,15.1-8.37,28.91-17.71,41.21-13.32,17.54-30.35,30.65-49.26,41.46-33.87,19.36-70.62,30.44-108.84,37.05-39.69,6.86-79.64,8.48-119.75,4.99-51.94-4.51-102.01-15.98-147.93-41.79-18.99-10.67-36.14-23.7-49.4-41.27-25.2-33.4-24.04-71.29,3.05-103.22,20.2-23.81,46.19-39.23,74.48-51.16C135.54,12.79,177.4,4.42,220.43,1.33c53.69-3.85,106.61.45,158.45,15.36,31.01,8.92,60.43,21.41,86.39,41,18.89,14.26,34.55,31.19,42.1,54.27,1.54,4.7,2.44,9.61,3.64,14.43v15.97ZM336.1,209.38c2.1-10.68,4.28-21.06,6.1-31.5.55-3.14,1.8-4.08,4.87-4.08,10.31,0,20.63.08,30.92-.47,29.29-1.56,50.46-20.34,55.79-49.14,4.53-24.43-5.12-41.5-26.86-47.13-4.15-1.07-8.51-1.72-12.79-1.78-19.12-.27-38.24-.2-57.36-.42-3.28-.04-4.09,1.32-4.65,4.26-6.82,35.55-13.79,71.08-20.71,106.61-1.51,7.74-2.95,15.5-4.5,23.65h29.19ZM103.96,74.92c-8.73,44.9-17.39,89.45-26.18,134.63,8.88,0,17.16-.13,25.43.06,3.18.07,4.23-1.11,4.76-4.16,1.6-9.32,3.67-18.56,5.32-27.87.51-2.85,1.63-3.86,4.54-3.78,6.64.19,13.29.14,19.94.04,11.48-.18,23.11-.29,33.65-5.47,21.58-10.62,32.86-28.44,34.15-52.25,1.28-23.69-12.33-38.87-36.06-40.54-10.43-.73-20.92-.54-31.39-.63-11.28-.09-22.57-.02-34.16-.02ZM301.44,173.51c4.18-21.73,8.44-43.22,12.42-64.77,3.41-18.46-4.04-29.63-22.63-32.13-12.13-1.63-24.53-1.21-36.8-1.68-1.91-.07-3.82-.01-6.13-.01,2.33-12.24,4.49-23.61,6.79-35.7-8.58,0-16.52.17-24.45-.08-3.48-.11-4.79.89-5.47,4.48-7.07,37.2-14.38,74.36-21.6,111.53-1.18,6.09-2.3,12.19-3.54,18.8h15.78c13.4,0,13.29-.02,15.78-13.09,3.85-20.23,7.82-40.44,11.9-60.63.27-1.35,1.92-3.44,2.95-3.45,9.13-.1,18.31-.24,27.4.5,8.53.7,11.28,4.63,9.91,13.23-1.68,10.49-3.79,20.91-5.77,31.36-1.96,10.39-3.98,20.78-6.07,31.62h29.55Z"/>
  <path class="cls-1" d="M347.35,151.97c3.44-17.76,6.83-35.47,10.41-53.15.2-1,1.9-2.45,2.89-2.43,9.93.18,19.95-.07,29.77,1.17,9.89,1.25,13.96,6.89,13.71,16.91-.1,4.1-.87,8.23-1.73,12.27-3.18,14.85-12.14,23.86-27.48,25.1-9.02.73-18.16.13-27.57.13Z"/>
  <path class="cls-1" d="M129.22,95.75c11.13.56,21.8.48,32.28,1.82,9.66,1.23,14.04,6.83,13.47,16.57-.38,6.53-1.72,13.2-3.83,19.41-4.28,12.6-14.56,17.67-26.98,18.56-8.25.59-16.57.11-25.84.11,3.59-18.58,7.14-37,10.9-56.46Z"/>
</svg>