<?xml version="1.0" encoding="UTF-8"?>
<svg id="Capa_1" data-name="Capa 1" xmlns="http://www.w3.org/2000/svg" viewBox="0 0 500.73 506.39">
  <defs>
    <style>
      .cls-1 {
        stroke-width: 0px;
      }
    </style>
  </defs>
  <path class="cls-1" d="M250.37,374.51v15.17h120.02c.11,2.1.25,3.71.26,5.32.02,12.81-.25,25.63.07,38.43.51,20.65-8.54,36.11-25.07,47.66-16.72,11.68-35.91,16.99-55.52,21.02-41.48,8.52-81.76,4.34-120.41-12.81-8.49-3.77-16.36-9.6-23.44-15.72-11.49-9.95-16.91-23.13-16.88-38.48.06-37.93-.18-75.87.08-113.8.25-35.34,27.25-61.84,62.65-61.91,38.26-.07,76.53-.58,114.77.14,40.57.76,72.77-30.15,77.98-65.57.65-4.42.79-8.95.82-13.43.1-15.14.04-30.28.04-45.42,0-1.79,0-3.58,0-5.93,3.64,0,6.75,0,9.86,0,11.48,0,22.96.09,34.43-.02,21.84-.22,37.85,9.52,48.75,28.18,8.61,14.73,12.52,31.04,16,47.48,6.08,28.72,8.49,57.58,2.46,86.63-3.94,18.96-10.13,37.17-19.27,54.29-10.46,19.6-26.74,28.97-49.1,28.87-57.39-.26-114.78-.09-172.16-.09h-6.34ZM295.43,443.5c.04,12.69,10.23,23.05,22.62,23,12.4-.04,22.52-10.44,22.51-23.14,0-12.77-10.01-22.85-22.65-22.82-12.65.03-22.52,10.11-22.48,22.96Z"/>
  <path class="cls-1" d="M114.28,375.02c-18.23-.54-35.81.28-53.01-1.92-21.6-2.76-35.22-17.34-44.35-36.31-8.17-16.99-11.22-35.39-14.28-53.76-5.78-34.73-1.81-68.81,8.96-101.9,10.77-33.11,38.13-51.84,73.11-51.93,52.9-.13,105.8-.03,158.71-.04,1.97,0,3.94,0,6.31,0v-15.11h-119.68c-.27-1.65-.61-2.74-.61-3.84.1-17.64-.05-35.28.44-52.9.62-21.88,11.13-37,31.87-44.81,17.45-6.57,35.69-9.27,54.08-10.9,32.11-2.83,64.2-2.18,95.93,3.84,25.48,4.83,45.42,17.85,55.28,42.91,2.37,6.03,3.41,12.94,3.46,19.46.31,38.27.32,76.54.11,114.81-.2,35.24-26.44,61.32-61.71,61.47-39.09.16-78.19.02-117.28.04-37.86.02-69.85,26.65-76.32,63.8-.96,5.53-.93,11.27-.98,16.91-.12,16.28-.04,32.57-.04,50.15ZM159.62,60.18c-.02,12.73,10.06,23,22.55,22.99,12.49-.02,22.61-10.32,22.59-23-.02-12.73-10.08-22.94-22.61-22.95-12.56,0-22.51,10.14-22.53,22.96Z"/>
</svg>