<?xml version="1.0" encoding="UTF-8"?>
<svg id="Capa_1" data-name="Capa 1" xmlns="http://www.w3.org/2000/svg" viewBox="0 0 511.09 511.19">
  <defs>
    <style>
      .cls-1 {
        stroke-width: 0px;
      }
    </style>
  </defs>
  <path class="cls-1" d="M258.56,511.19h-5.99c-1.86-2.28-3.91-4.42-5.52-6.86-3.2-4.85-6.14-9.88-9.23-14.81-2.8-4.45-6.96-4.91-10.53-1.14-4.46,4.71-8.82,9.52-13.3,14.21-5.67,5.96-11.57,4.86-14.52-2.73-2.41-6.19-4.62-12.46-7.01-18.65-1.74-4.5-5.87-5.7-9.86-2.88-5.3,3.74-10.51,7.6-15.8,11.35-6.94,4.91-12.67,2.54-13.99-5.71-1.02-6.4-2.04-12.8-3.09-19.2-.77-4.75-4.65-6.95-8.97-5.03-5.77,2.56-11.5,5.2-17.25,7.8-8.9,4.02-13.71.61-13.23-9.28.28-5.82.47-11.64.61-17.46.15-6.3-2.83-8.59-9.1-7.12-5.82,1.37-11.63,2.79-17.45,4.15-8.7,2.03-13.02-2.17-11.03-10.76,1.42-6.15,2.99-12.27,4.4-18.42,1.2-5.26-1.3-8.42-6.61-8.31-6.32.13-12.63.37-18.95.62-8.82.35-12.37-4.71-8.8-12.67,2.58-5.76,5.25-11.48,7.84-17.24,2.25-5.01.24-8.78-5.06-9.62-6.4-1.02-12.8-2.02-19.19-3.08-7.68-1.28-10.18-7.06-5.74-13.42,3.8-5.46,7.79-10.78,11.63-16.21,3.02-4.27,1.78-8.23-3.17-10.13-6.2-2.38-12.46-4.61-18.65-7.01-6.98-2.7-8.22-8.75-2.83-13.97,4.54-4.4,9.22-8.65,13.84-12.96,5.06-4.72,4.67-8.33-1.32-12.05-5.36-3.33-10.79-6.56-16.09-10-6.07-3.93-6.08-10.08-.03-13.98,5.59-3.6,11.3-7,16.94-10.53,4.92-3.08,5.24-7.16.92-11.21-4.73-4.44-9.56-8.78-14.22-13.29-5.39-5.21-4.15-11.2,2.86-13.95,6.18-2.43,12.44-4.65,18.65-7.02,4.8-1.83,6.09-5.95,3.15-10.12-3.84-5.43-7.83-10.76-11.63-16.21-4.45-6.38-1.96-12.14,5.74-13.4,6.56-1.08,13.13-2.07,19.69-3.15,4.67-.76,6.8-4.72,4.85-9.09-2.71-6.06-5.57-12.07-8.26-18.14-3.29-7.4.26-12.55,8.41-12.29,6.48.21,12.96.53,19.45.67,5.31.12,7.86-3.04,6.68-8.25-1.43-6.32-3.08-12.59-4.51-18.9-1.8-7.94,2.61-12.32,10.58-10.52,6.48,1.47,12.91,3.15,19.39,4.59,4.57,1.01,7.79-1.64,7.7-6.33-.13-6.82-.47-13.63-.64-20.45-.18-7.52,4.95-11.01,11.85-8.01,6.24,2.72,12.39,5.66,18.6,8.44,4.36,1.94,8.24-.22,9.01-4.95,1.07-6.56,2.05-13.14,3.16-19.69,1.29-7.65,7.08-10.07,13.48-5.61,5.05,3.52,10,7.17,14.99,10.76,5.66,4.07,9.18,3.06,11.6-3.35,2.23-5.9,4.37-11.84,6.69-17.71,2.74-6.95,8.79-8.13,14.01-2.72,4.62,4.79,9.08,9.73,13.64,14.57,3.56,3.78,7.81,3.41,10.54-.93,3.63-5.77,7.09-11.65,10.8-17.36,3.92-6.04,10.05-5.97,13.98.13,3.6,5.59,7.01,11.3,10.54,16.94,2.92,4.67,7.1,5.11,10.86,1.12,4.45-4.72,8.81-9.53,13.29-14.22,5.43-5.68,11.44-4.54,14.26,2.7,2.42,6.19,4.64,12.45,7.01,18.65,1.8,4.7,6.04,5.93,10.19,2.98,5.42-3.85,10.75-7.84,16.19-11.65,6.12-4.29,11.96-1.88,13.24,5.45,1.14,6.55,2.12,13.12,3.17,19.69.8,5,4.67,7.19,9.26,5.14,6.07-2.71,12.06-5.58,18.14-8.25,7.15-3.15,12.33.34,12.13,8.14-.17,6.49-.5,12.97-.66,19.45-.14,5.7,2.9,8.24,8.42,6.99,6.16-1.39,12.27-2.98,18.41-4.4,8.31-1.92,12.69,2.4,10.8,10.67-1.45,6.31-3.09,12.58-4.5,18.9-1.1,4.91,1.49,8.11,6.47,8.01,6.65-.13,13.3-.45,19.95-.64,7.87-.22,11.39,4.87,8.26,12.02-2.66,6.09-5.51,12.09-8.23,18.15-2.1,4.69-.03,8.54,4.95,9.34,6.56,1.05,13.14,2.03,19.69,3.16,7.36,1.27,9.86,7.07,5.62,13.18-3.88,5.6-7.98,11.06-11.9,16.63-2.73,3.88-1.4,8.09,3.08,9.81,6.36,2.43,12.79,4.67,19.12,7.17,6.68,2.63,7.89,8.72,2.75,13.73-4.77,4.64-9.71,9.1-14.56,13.65-4.05,3.81-3.68,7.93.95,10.85,5.06,3.19,10.26,6.19,15.17,9.59,2.38,1.65,4.27,4.01,6.38,6.05v3.99c-1.96,1.96-3.68,4.28-5.93,5.81-5.07,3.46-10.42,6.52-15.64,9.78-4.66,2.92-5.11,7.1-1.14,10.85,4.35,4.11,8.77,8.15,13.13,12.26,7.37,6.93,6.2,12.46-3.4,16.09-5.75,2.17-11.54,4.21-17.27,6.43-4.15,1.61-5.41,5.87-2.84,9.53,3.92,5.57,8.01,11.03,11.9,16.63,4.44,6.39,1.93,12.08-5.84,13.36-6.39,1.06-12.79,2.07-19.19,3.08-5.29.84-7.29,4.62-5.03,9.62,2.67,5.9,5.43,11.76,8.04,17.69,3.26,7.39-.31,12.49-8.48,12.22-6.48-.21-12.96-.5-19.45-.64-5.29-.11-7.81,3.02-6.62,8.25,1.43,6.32,3.04,12.59,4.48,18.91,1.81,7.89-2.63,12.31-10.58,10.51-6.48-1.47-12.9-3.16-19.39-4.59-4.57-1.01-7.76,1.65-7.67,6.32.12,6.82.43,13.63.58,20.45.17,7.56-4.91,11.04-11.81,8.02-6.24-2.73-12.36-5.71-18.58-8.48-4.29-1.91-8.25.34-9,5-1.07,6.56-2.04,13.14-3.18,19.68-1.33,7.67-7.14,10.08-13.49,5.61-5.16-3.64-10.24-7.4-15.37-11.08-5.05-3.62-8.87-2.51-11.03,3.21-2.29,6.06-4.48,12.15-6.85,18.18-2.72,6.92-8.83,8.08-14.02,2.68-4.38-4.56-8.65-9.22-12.95-13.85-4.45-4.78-8.2-4.34-11.8,1.15-4.61,7.03-9.39,13.94-14.1,20.9ZM442.07,267.79c0-9.81-.09-18.92.04-28.03.05-3.36-1.47-4.96-4.46-6.22-9.63-4.07-19.17-8.39-28.69-12.71-9.39-4.25-12.12-11.28-8.01-20.73,5.17-11.88,10.53-23.67,15.57-35.61.7-1.65.7-4.33-.19-5.8-28.42-46.76-69.38-76.09-122.89-87.67-1.82-.39-4.57.46-5.98,1.73-7.64,6.92-14.95,14.2-22.47,21.26-7.33,6.89-14.84,6.71-21.85-.51-6.26-6.44-12.61-12.81-18.53-19.56-2.69-3.07-5.3-3.65-9.06-2.79-25.92,5.97-49.87,16.39-71.05,32.51-9.67,7.36-18.51,15.82-27.72,23.78.32.55.63,1.1.95,1.65h5.77c62.2,0,124.41-.05,186.61.03,20.98.03,39.38,7.15,54.97,21.22,24.78,22.35,25.74,54.26,2.15,77.71-5.16,5.13-11.23,9.33-16.9,13.94-1.25,1.02-2.6,1.92-4.07,2.99,2.73,2.3,5.1,4.38,7.56,6.36,9.12,7.32,15.11,16.72,18.4,27.84,1.51,5.09,2.49,10.33,3.9,15.45.51,1.86,1.15,4.04,2.48,5.26,7.26,6.7,15.88,7.68,25.13,5.31,8.39-2.15,13.68-7.54,15.32-15.93.95-4.85.97-9.9,1.11-14.87.19-6.52.12-6.58,6.83-6.6,4.81-.01,9.62,0,15.06,0ZM405.48,366.41c-.2-.47-.4-.94-.6-1.41-1.78,0-3.56,0-5.34,0-23.12,0-46.24.21-69.35-.18-4.55-.08-9.79-1.45-13.43-4.03-8.9-6.29-14.84-15.1-17.31-25.95-2.65-11.66-5.22-23.34-7.95-34.98-4.3-18.39-15.26-27.07-34.03-27.08-12.81,0-25.61,0-38.42,0h-5.52v34.43c2.11,0,3.9,0,5.69,0,12.14,0,24.28.11,36.42-.06,3.79-.05,5.2,1.03,5.14,5.08-.23,15.3-.09,30.6-.09,45.91q0,6.85-6.7,6.86c-47.4,0-94.8,0-142.2,0h-7.09c5.38,6.31,9.76,11.25,13.91,16.39,1.84,2.28,3.78,2.65,6.5,2.02,8.41-1.95,16.87-3.69,25.31-5.51,10.55-2.28,17.02,1.93,19.26,12.53,2.06,9.75,3.96,19.54,6.32,29.22.5,2.04,2.3,4.55,4.15,5.34,49.56,21.21,99.32,21.55,149.09.73,1.84-.77,3.65-3.25,4.15-5.26,2.35-9.51,4.2-19.14,6.29-28.71,2.54-11.61,8.66-15.46,20.31-12.91,8.27,1.82,16.52,3.74,24.84,5.3,1.83.34,4.62.08,5.76-1.09,5.2-5.32,9.96-11.05,14.88-16.64ZM128.65,305.36v-119.43h-25.84c2.11,4.86,4.12,9.36,6.02,13.91,3.75,8.99,1.08,15.99-7.79,20.04-9.06,4.15-18.15,8.22-27.33,12.1-2.95,1.25-4.38,2.88-4.59,6.18-1.38,21.56.03,42.83,5.62,63.79.8,3,2.28,3.46,4.92,3.44,13.14-.09,26.27-.04,39.41-.04,3.12,0,6.24,0,9.57,0ZM213.57,221.86c1.01.19,1.8.46,2.59.46,18.76.01,37.52.32,56.26-.2,6.14-.17,12.65-1.56,18.22-4.08,10.83-4.91,11.73-17.27,2.33-24.62-5.68-4.44-12.31-6.4-19.48-6.41-18.42-.04-36.85-.02-55.27,0-1.45,0-2.91.17-4.64.27v34.58ZM157.45,411.88c-.03-8.24-7.19-15.27-15.41-15.13-8.31.13-15.16,7.19-15.04,15.5.11,7.93,7.17,14.88,15.15,14.92,8.17.04,15.34-7.12,15.3-15.28ZM435.8,183.44c-8.44.08-15.07,6.94-14.91,15.4.16,8.2,6.89,14.84,15.04,14.85,8.29,0,15.25-6.96,15.23-15.24-.02-8.36-6.91-15.09-15.37-15.01ZM269.86,60.37c.04-8.41-6.78-15.29-15.13-15.27-8.24.02-15.14,7.02-15.13,15.34.02,8.05,6.8,14.86,14.93,14.99,8.37.13,15.28-6.66,15.32-15.06ZM382.39,412.42c-.07-8.32-7.1-15.15-15.42-14.98-8.16.17-14.73,6.9-14.75,15.12-.02,8.46,6.71,15.21,15.13,15.17,8.42-.03,15.11-6.85,15.04-15.31ZM73.73,212.87c8.42-.07,15.23-7.01,15.06-15.34-.17-8.32-7.2-15-15.59-14.82-8.4.18-14.94,7.12-14.73,15.61.2,8.11,7.03,14.61,15.27,14.54Z"/>
</svg>