<?xml version="1.0" encoding="UTF-8"?>
<svg id="Capa_1" data-name="Capa 1" xmlns="http://www.w3.org/2000/svg" viewBox="0 0 447.39 446.71">
  <defs>
    <style>
      .cls-1 {
        stroke-width: 0px;
      }
    </style>
  </defs>
  <path class="cls-1" d="M211.65,0c7.79,0,15.58,0,23.37,0,1.01.08,2.02.14,3.02.25,5.64.62,11.3,1.08,16.9,1.93,6.54.99,13.04,2.23,19.52,3.56,3.66.75,7.28,1.78,10.85,2.9,6,1.88,12.02,3.74,17.89,5.97,5.56,2.12,11.04,4.53,16.39,7.15,6.16,3.03,12.29,6.19,18.16,9.74,6.28,3.79,12.33,7.99,18.32,12.23,7.61,5.39,14.68,11.44,21.37,17.95,1.69,1.65,3.41,3.27,5.11,4.92.42.41.76.66,1.21,0,1.31-1.92,2.72-3.78,3.96-5.74,3.09-4.93,6.36-9.77,9.1-14.89,3.38-6.3,6.31-12.85,9.44-19.29.19-.39.44-.76.79-1.34.34.87.61,1.46.81,2.07,1.26,3.87,2.51,7.75,3.75,11.63,2.7,8.53,5.44,17.05,8.07,25.61,1.72,5.6,3.3,11.24,4.86,16.88,2.23,8.06,4.43,16.13,6.54,24.22,1.55,5.95,2.95,11.93,4.37,17.91,2.56,10.83,4.81,21.73,6.55,32.73.87,5.49,1.7,10.99,2.53,16.5.24,1.58.46,3.17.62,4.76.44,4.34.88,8.68,1.25,13.02.36,4.31.76,8.62.91,12.94.16,4.44.09,8.88.05,13.32-.04,4.47.01,8.96-.3,13.41-.46,6.49-1.22,12.95-1.86,19.42-.77,7.76-2.14,15.42-3.92,23-1.09,4.63-2.38,9.22-3.64,13.82-2.16,7.87-5,15.5-8.14,23.02-3.09,7.38-6.53,14.6-10.5,21.56-2.32,4.07-4.65,8.16-7.16,12.11-4.53,7.12-9.46,13.96-14.82,20.5-6.09,7.43-12.42,14.64-19.51,21.14-3.97,3.63-7.95,7.25-12.05,10.73-7.78,6.6-16.11,12.46-24.77,17.84-7.64,4.74-15.56,8.98-23.71,12.77-7.56,3.52-15.29,6.61-23.2,9.22-9.12,3.02-18.4,5.51-27.86,7.27-6.65,1.24-13.31,2.38-20.07,2.88-4.02.3-8.03.9-12.06.99-7.02.17-14.05.05-21.07.04-.25,0-.51-.03-.76-.06-3.73-.34-7.47-.57-11.18-1.03-6.2-.78-12.4-1.57-18.56-2.61-4.26-.71-8.46-1.8-12.68-2.79-7.91-1.85-15.66-4.23-23.24-7.13-5.7-2.18-11.36-4.51-16.87-7.11-6.01-2.83-11.98-5.82-17.72-9.18-6.11-3.57-12.08-7.44-17.83-11.57-5.84-4.19-11.34-8.86-16.98-13.33-.11-.09-.15-.27-.36-.67,4.59,3.15,9.31,4.77,14.63,3.87,5.26-.9,9.6-3.44,12.66-7.83,5.2-7.47,4.6-16.94-1.49-23.55-6.55-7.12-16.58-8.29-24.49-3-3.82,2.56-6.5,6.09-7.65,10.55-1.78,6.89-.2,13.06,4.58,18.43-.33-.09-.57-.22-.77-.4-2.96-2.8-5.98-5.53-8.84-8.43-3.34-3.39-6.59-6.88-9.78-10.41-6.58-7.27-12.43-15.1-17.89-23.23-6.69-9.95-12.59-20.36-17.49-31.3-2.75-6.13-5.31-12.38-7.51-18.73-2.29-6.62-4.14-13.41-5.99-20.17-2-7.34-3.46-14.8-4.36-22.37-.61-5.12-1.13-10.26-1.69-15.39-.15-1.4-.28-2.81-.42-4.21,0-7.86,0-15.73,0-23.59.14-1.4.27-2.81.42-4.21.62-5.71.97-11.46,1.93-17.11,1.28-7.6,2.81-15.17,4.62-22.65,1.44-5.93,3.3-11.77,5.29-17.54,1.83-5.32,3.96-10.55,6.18-15.73,4.05-9.48,8.73-18.66,14.31-27.33,3.9-6.05,7.95-12.01,12.15-17.85,5.08-7.06,10.78-13.63,16.82-19.9,3.53-3.66,7.23-7.16,10.97-10.61,3.45-3.17,6.97-6.28,10.62-9.22,7.18-5.82,14.72-11.15,22.58-16.03,7.27-4.51,14.74-8.69,22.53-12.21,6.89-3.1,13.88-6.03,21-8.55,6.64-2.35,13.47-4.17,20.27-6.03,7.34-2.01,14.8-3.45,22.36-4.35,5.12-.61,10.26-1.13,15.39-1.69,1.4-.15,2.81-.28,4.21-.42ZM133.62,375.85s.05.1.08.15c4.55-.49,9.11-.87,13.64-1.5,7.05-.98,14.14-1.1,21.22-1.19,7.38-.09,14.77.07,22.16.18,6.33.1,12.65.25,18.98.44,6.07.18,12.13.46,18.2.62,5.13.14,10.26.24,15.38.23,8.08,0,16.15-.08,24.23-.2,4.58-.07,9.16-.16,13.73-.45,6.49-.41,12.99-.84,19.45-1.57,6.61-.74,13.19-1.75,19.75-2.85,4.12-.69,8.21-1.63,12.25-2.7,5.3-1.41,10.62-2.85,15.78-4.69,4.99-1.78,9.83-4.01,14.68-6.15,6.21-2.75,12-6.26,17.53-10.16,6.97-4.92,13.34-10.55,19.03-16.94,7.18-8.06,13.12-16.96,18.11-26.51,4.12-7.89,7.58-16.06,10.12-24.59,1.42-4.77,2.85-9.55,3.96-14.4,1.56-6.84,2.87-13.74,3.47-20.75.57-6.7,1.27-13.39,1.64-20.09.26-4.82.15-9.67.05-14.5-.11-5.27-.34-10.53-.65-15.79-.29-5.04-.61-10.09-1.17-15.11-.71-6.36-1.55-12.71-2.58-19.02-1.31-8.04-2.82-16.05-4.34-24.05-.8-4.18-1.78-8.32-2.74-12.47-.89-3.86-1.81-7.72-2.77-11.56-.85-3.42-1.75-6.83-2.68-10.23-1.31-4.81-2.63-9.61-4.01-14.4-1.2-4.16-2.44-8.31-3.74-12.43-2.35-7.42-4.76-14.83-7.16-22.23-.08-.24-.25-.45-.46-.8-.34.56-.61.95-.83,1.36-.24.45-.39.94-.64,1.39-3.54,6.53-7.42,12.85-11.89,18.8-4.99,6.65-10.4,12.92-16.31,18.75-3.05,3.01-6.17,5.98-9.45,8.74-4.62,3.88-9.34,7.65-14.16,11.27-3.81,2.86-7.74,5.56-11.79,8.07-5.16,3.2-10.4,6.29-15.74,9.16-4.7,2.53-9.56,4.79-14.43,6.99-4,1.81-8.06,3.57-12.21,4.99-6.15,2.11-12.37,4.05-18.63,5.8-4.37,1.23-8.83,2.21-13.3,2.98-5.66.98-11.36,1.65-17.05,2.41-2.34.31-4.7.53-7.05.73-2.35.2-4.71.34-7.07.5-3.88.27-7.75.57-11.63.79-3.67.21-7.34.27-11,.5-5.98.38-11.97.76-17.94,1.29-5,.44-10.01.83-14.95,1.68-6.44,1.1-12.84,2.52-19.21,4-6.92,1.61-13.57,4.12-20.06,6.98-7.34,3.22-14.36,7.03-21.01,11.53-5.25,3.55-10.27,7.41-14.87,11.76-5.61,5.31-10.76,11.03-15.27,17.33-4.05,5.67-7.58,11.64-10.54,17.94-3.56,7.6-6.26,15.5-8.08,23.71-1.72,7.73-2.63,15.57-2.74,23.47-.05,3.7.33,7.4.6,11.1.48,6.49,1.81,12.82,3.7,19.03,2.01,6.6,4.75,12.89,8.41,18.77,2.92,4.68,6.36,8.92,10.32,12.77,4.68,4.56,10.14,7.89,15.95,10.74.42.21,1,.26,1.47.19,1.54-.24,3.08-.54,4.61-.87,7.29-1.57,14.57-3.15,21.85-4.76,4.51-.99,9.02-2,13.52-3.05,3.72-.87,7.42-1.8,11.13-2.7,5.09-1.24,10.18-2.45,15.26-3.72,3.56-.89,7.11-1.85,10.65-2.82,6.14-1.69,12.27-3.37,18.39-5.13,3.91-1.12,7.8-2.33,11.68-3.59,4.81-1.56,9.65-3.05,14.36-4.85,5.6-2.14,11.14-4.45,16.6-6.94,5.65-2.58,11.25-5.31,16.74-8.22,9-4.77,17.73-10.02,26.08-15.88,5.65-3.97,11.34-7.92,16.73-12.23,6.53-5.21,12.93-10.61,19.08-16.27,5.72-5.26,11.19-10.82,16.48-16.51,4.59-4.95,8.87-10.2,13.13-15.45,5.97-7.36,11.31-15.17,16.07-23.35,2.83-4.87,5.53-9.83,7.98-14.9,2.37-4.9,4.35-10,6.48-15.02.53-1.24.97-2.51,1.45-3.76.22.28.25.49.21.69-.71,3.38-1.3,6.8-2.19,10.13-1.23,4.64-2.53,9.27-4.09,13.8-1.8,5.26-3.75,10.48-5.92,15.6-3.35,7.91-7.26,15.55-11.53,23.01-4.83,8.44-10.12,16.58-15.94,24.36-3.64,4.86-7.4,9.64-11.34,14.25-4.61,5.38-9.41,10.6-14.26,15.76-3.01,3.2-6.21,6.24-9.43,9.23-3.62,3.36-7.3,6.67-11.09,9.85-3.79,3.17-7.69,6.22-11.64,9.19-3.77,2.85-7.59,5.64-11.52,8.26-4.29,2.86-8.65,5.65-13.14,8.19-5.72,3.25-11.5,6.44-17.45,9.24-6.28,2.95-12.72,5.58-19.21,8.02-7.01,2.63-14.14,4.97-21.27,7.26-7.09,2.29-14.26,4.36-21.39,6.54-2.61.8-5.21,1.61-7.82,2.41-2.85.88-5.7,1.74-8.54,2.64-2.81.89-5.6,1.83-8.4,2.75-3.9,1.28-7.8,2.55-11.7,3.85-2.76.92-5.51,1.87-8.25,2.86-2.04.73-4.06,1.54-6.09,2.31Z"/>
</svg>