<?xml version="1.0" standalone="no"?>
<!DOCTYPE svg PUBLIC "-//W3C//DTD SVG 20010904//EN"
 "http://www.w3.org/TR/2001/REC-SVG-20010904/DTD/svg10.dtd">
<svg version="1.0" xmlns="http://www.w3.org/2000/svg"
 width="234.000000pt" height="234.000000pt" viewBox="0 0 234.000000 234.000000"
 preserveAspectRatio="xMidYMid meet">
<metadata>
Created by potrace 1.14, written by Peter Selinger 2001-2017
</metadata>
<g transform="translate(0.000000,234.000000) scale(0.100000,-0.100000)"
fill="#000000" stroke="none">
<path d="M1219 2119 c-87 -13 -88 -14 -246 -269 l-108 -175 -50 -1 c-181 -1
-340 -89 -421 -232 -15 -26 -28 -48 -29 -49 -1 -1 -19 -5 -40 -9 -126 -20
-226 -97 -288 -224 -29 -60 -32 -73 -32 -165 0 -132 26 -204 105 -285 30 -31
66 -64 79 -73 l23 -16 -72 -118 c-113 -183 -114 -187 -85 -243 33 -64 -32 -61
1149 -58 l1074 3 26 24 c41 39 43 80 8 153 -17 35 -46 90 -65 123 -19 33 -107
193 -197 355 -89 162 -219 396 -288 520 -139 251 -141 255 -276 500 -53 96
-110 187 -126 201 -40 34 -85 46 -141 38z"/>
</g>
</svg>
